Coordinates
version=1
nRows=17
nColumns=63
inDegrees=yes

Units are S.I. units (second, meters, Newtons, ...)
If the header above contains a line with 'inDegrees', this indicates whether rotational values are in degrees (yes) or radians (no).

endheader
time	pelvis_tilt	pelvis_list	pelvis_rotation	pelvis_tx	pelvis_ty	pelvis_tz	hip_flexion_r	hip_adduction_r	hip_rotation_r	knee_angle_r	knee_angle_r_beta	ankle_angle_r	subtalar_angle_r	mtp_angle_r	hip_flexion_l	hip_adduction_l	hip_rotation_l	knee_angle_l	knee_angle_l_beta	ankle_angle_l	subtalar_angle_l	mtp_angle_l	L5_S1_Flex_Ext	L5_S1_Lat_Bending	L5_S1_axial_rotation	L4_L5_Flex_Ext	L4_L5_Lat_Bending	L4_L5_axial_rotation	L3_L4_Flex_Ext	L3_L4_Lat_Bending	L3_L4_axial_rotation	L2_L3_Flex_Ext	L2_L3_Lat_Bending	L2_L3_axial_rotation	L1_L2_Flex_Ext	L1_L2_Lat_Bending	L1_L2_axial_rotation	L1_T12_Flex_Ext	L1_T12_Lat_Bending	L1_T12_axial_rotation	Abs_r3	Abs_r2	Abs_r1	Abs_t1	Abs_t2	neck_flexion	neck_bending	neck_rotation	arm_flex_r	arm_add_r	arm_rot_r	elbow_flex_r	pro_sup_r	wrist_flex_r	wrist_dev_r	arm_flex_l	arm_add_l	arm_rot_l	elbow_flex_l	pro_sup_l	wrist_flex_l	wrist_dev_l
1.800000	-2.198773	-2.138173	95.416716	0.199602	0.866482	0.656658	-2.111503	-2.155630	-1.310172	4.423740	0.077209	22.642511	3.830085	0.000000	2.239697	1.731561	16.650762	7.789149	0.135946	20.566261	-5.984882	0.000000	-0.132700	-0.693973	-0.956019	-0.246437	-0.922984	-1.015770	-0.218013	-1.687326	-1.015770	-0.151663	-1.687326	-0.836517	-0.123225	-1.415150	-0.776766	-0.075825	-1.074964	-0.717014	-0.947863	-7.850362	-5.317092	0.000000	0.000000	25.142808	10.169107	-17.904995	85.663995	-58.149010	71.958285	142.186151	21.369751	0.448242	16.153552	12.602743	-15.092288	140.210594	2.506587	3.246822	-4.520996	-5.411913
1.816667	-2.109975	-2.120933	95.488691	0.199415	0.866401	0.656634	-2.141506	-2.059986	-1.408618	4.424916	0.077229	22.664671	3.846540	0.000000	2.346528	1.671546	16.853008	8.071943	0.140882	20.594289	-6.129516	0.000000	-0.139624	-0.688912	-0.967407	-0.259295	-0.916253	-1.027870	-0.229388	-1.675020	-1.027870	-0.159576	-1.675020	-0.846481	-0.129655	-1.404829	-0.786019	-0.079781	-1.067124	-0.725556	-0.997319	-7.793106	-5.380430	0.000000	0.000000	24.916940	10.421256	-18.124062	85.196084	-57.864201	72.159677	143.693399	18.632612	0.690427	17.221038	12.607092	-15.107993	139.329604	2.533897	3.181122	-4.475327	-5.500423
1.833333	-2.034921	-2.066837	95.538667	0.199268	0.866359	0.656663	-2.200061	-1.977684	-1.534143	4.430282	0.077323	22.736634	3.949066	0.000000	2.409183	1.622080	17.045017	8.360780	0.145923	20.578791	-6.345009	0.000000	-0.147587	-0.684636	-0.970256	-0.274084	-0.910565	-1.030898	-0.242471	-1.664623	-1.030898	-0.168677	-1.664623	-0.848974	-0.137049	-1.396109	-0.788333	-0.084331	-1.060501	-0.727692	-1.054200	-7.744736	-5.396276	0.000000	0.000000	24.558696	10.656535	-18.328844	84.543663	-57.699865	72.276917	145.085541	17.462166	0.847669	17.688963	12.649933	-15.141097	138.054423	2.649967	3.088165	-4.384240	-5.637235
1.850000	-1.988369	-1.979409	95.568225	0.199215	0.866380	0.656708	-2.290973	-1.920041	-1.678656	4.431855	0.077350	22.848387	4.121132	0.000000	2.421510	1.592550	17.203463	8.638084	0.150763	20.515657	-6.591631	0.000000	-0.155275	-0.684417	-0.964357	-0.288362	-0.910274	-1.024629	-0.255102	-1.664090	-1.024629	-0.177464	-1.664090	-0.843812	-0.144189	-1.395662	-0.783540	-0.088724	-1.060161	-0.723268	-1.109116	-7.742257	-5.363463	0.000000	0.000000	24.065770	10.899034	-18.583932	83.494054	-57.601021	72.089690	146.320471	17.981292	1.201211	17.599716	12.739414	-15.214612	136.374934	2.876942	2.988442	-4.239979	-5.802007
1.866667	-1.968411	-1.858717	95.605598	0.199208	0.866453	0.656766	-2.426221	-1.885420	-1.850712	4.412748	0.077017	22.992694	4.352783	0.000000	2.384167	1.580212	17.328439	8.895993	0.155264	20.419265	-6.813233	0.000000	-0.163718	-0.686251	-0.959116	-0.304041	-0.912714	-1.019061	-0.268973	-1.668552	-1.019061	-0.187114	-1.668552	-0.839227	-0.152029	-1.399404	-0.779282	-0.093549	-1.063004	-0.719337	-1.169424	-7.763014	-5.334317	0.000000	0.000000	23.476405	11.096143	-18.796225	82.342969	-57.531615	71.988459	147.425734	20.378814	1.368153	16.975215	12.854355	-15.311407	134.444193	3.164618	2.894804	-4.032265	-6.021786
1.883333	-1.969712	-1.697948	95.652617	0.199236	0.866597	0.656801	-2.609568	-1.865934	-2.092151	4.384528	0.076524	23.168848	4.661945	0.000000	2.288822	1.580834	17.431122	9.130825	0.159363	20.303973	-7.024374	0.000000	-0.174500	-0.689249	-0.954823	-0.324065	-0.916701	-1.014499	-0.286687	-1.675840	-1.014499	-0.199436	-1.675840	-0.835470	-0.162041	-1.405517	-0.775794	-0.099710	-1.067647	-0.716117	-1.246439	-7.796924	-5.310438	0.000000	0.000000	22.808336	11.281204	-18.922736	81.119765	-57.451804	72.011607	148.356911	25.019310	1.432362	15.601041	12.992128	-15.426537	132.182006	3.521172	2.817819	-3.722729	-6.256478
1.900000	-2.003041	-1.528008	95.670648	0.199395	0.866796	0.656775	-2.806862	-1.875572	-2.322605	4.341972	0.075782	23.361194	5.011378	0.000000	2.158147	1.602557	17.477895	9.323610	0.162728	20.175996	-7.198949	0.000000	-0.183367	-0.696597	-0.939899	-0.340531	-0.926475	-0.998642	-0.301254	-1.693707	-0.998642	-0.209570	-1.693707	-0.822411	-0.170275	-1.420502	-0.763668	-0.104776	-1.079030	-0.704924	-1.309774	-7.880050	-5.227435	0.000000	0.000000	22.102319	11.458381	-19.103531	79.692617	-57.310417	71.943514	149.106578	31.392641	1.770627	13.877757	13.158278	-15.560366	129.846752	3.927747	2.778565	-3.419370	-6.533214
1.916667	-2.055015	-1.349775	95.681984	0.199634	0.867016	0.656667	-3.021949	-1.900088	-2.571023	4.284572	0.074780	23.570268	5.399712	0.000000	1.996294	1.635024	17.507825	9.476248	0.165392	20.064449	-7.359792	0.000000	-0.191618	-0.704983	-0.918275	-0.355854	-0.937628	-0.975667	-0.314810	-1.714096	-0.975667	-0.219000	-1.714096	-0.803490	-0.177937	-1.437602	-0.746098	-0.109491	-1.092019	-0.688706	-1.368710	-7.974911	-5.107168	0.000000	0.000000	21.398016	11.568682	-19.251822	78.215344	-57.061847	71.894640	149.684584	39.633955	2.192057	11.930276	13.336451	-15.678034	127.741464	4.313592	2.758296	-3.125818	-6.842179
1.933333	-2.124267	-1.177440	95.671882	0.199969	0.867229	0.656452	-3.238161	-1.939345	-2.790230	4.216520	0.073592	23.784404	5.777779	0.000000	1.816703	1.678227	17.514136	9.586538	0.167317	19.983454	-7.510237	0.000000	-0.198362	-0.714733	-0.885315	-0.368377	-0.950595	-0.940648	-0.325888	-1.737802	-0.940648	-0.226707	-1.737802	-0.774651	-0.184199	-1.457483	-0.719319	-0.113344	-1.107121	-0.663987	-1.416877	-8.085202	-4.923859	0.000000	0.000000	20.733459	11.599288	-19.440169	76.707278	-56.673908	71.803427	150.076467	48.777682	2.909995	10.109239	13.526615	-15.780517	125.969990	4.691522	2.758879	-2.923994	-7.176594
1.950000	-2.213357	-1.020630	95.654004	0.200401	0.867425	0.656074	-3.455335	-1.993498	-2.948268	4.131118	0.072102	23.989293	6.091569	0.000000	1.622891	1.733937	17.517497	9.644440	0.168327	19.934953	-7.654895	0.000000	-0.202181	-0.726632	-0.845468	-0.375470	-0.966420	-0.898310	-0.332163	-1.766733	-0.898310	-0.231072	-1.766733	-0.739785	-0.187745	-1.481748	-0.686943	-0.115526	-1.125553	-0.634101	-1.444157	-8.219805	-4.702241	0.000000	0.000000	20.089121	11.519063	-19.718315	75.207011	-56.096304	71.717821	150.256455	57.100263	3.947166	8.805486	13.704519	-15.879222	124.514776	5.068984	2.791721	-2.854844	-7.557194
1.966667	-2.308181	-0.891814	95.594399	0.200897	0.867556	0.655592	-3.643722	-2.055998	-3.033522	4.045998	0.070616	24.171532	6.342395	0.000000	1.441127	1.797609	17.517213	9.672042	0.168809	19.923093	-7.837080	0.000000	-0.202785	-0.737809	-0.792984	-0.376591	-0.981287	-0.842545	-0.333155	-1.793910	-0.842545	-0.231763	-1.793910	-0.693861	-0.188306	-1.504541	-0.644299	-0.115871	-1.142867	-0.594738	-1.448471	-8.346248	-4.410339	0.000000	0.000000	19.554489	11.385684	-20.001528	73.819604	-55.346095	71.694986	150.258780	62.852593	5.130086	8.284448	13.870520	-15.944233	123.437464	5.409757	2.850142	-2.855947	-7.921882
1.983333	-2.417636	-0.796236	95.539115	0.201414	0.867634	0.654964	-3.812815	-2.135075	-3.129797	3.952374	0.068982	24.335379	6.595735	0.000000	1.265668	1.877628	17.583847	9.642033	0.168285	19.929606	-8.080304	0.000000	-0.198839	-0.750587	-0.738442	-0.369264	-0.998280	-0.784595	-0.326673	-1.824977	-0.784595	-0.227253	-1.824977	-0.646137	-0.184642	-1.530597	-0.599984	-0.113617	-1.162659	-0.553831	-1.420287	-8.490788	-4.106993	0.000000	0.000000	19.060023	11.151603	-20.396300	72.502614	-54.443916	71.627438	150.142071	66.897131	6.340510	8.223342	13.998856	-15.997890	122.711309	5.730958	2.847151	-2.980194	-8.351480
2.000000	-2.530799	-0.731336	95.472109	0.201953	0.867659	0.654235	-3.957913	-2.219021	-3.140014	3.854108	0.067267	24.454952	6.738025	0.000000	1.107738	1.958182	17.598185	9.571059	0.167046	20.004438	-8.224535	0.000000	-0.190994	-0.763801	-0.679349	-0.354696	-1.015855	-0.721809	-0.313785	-1.857105	-0.721809	-0.218287	-1.857105	-0.594431	-0.177357	-1.557542	-0.551971	-0.109134	-1.183127	-0.509512	-1.364253	-8.640266	-3.778337	0.000000	0.000000	18.614582	10.834967	-20.915095	71.329699	-53.448979	71.560746	149.979819	69.607484	7.346291	8.347402	14.083815	-16.048805	122.107896	6.069401	2.859007	-3.227655	-8.838572
2.016667	-2.648460	-0.684674	95.392578	0.202502	0.867650	0.653456	-4.086580	-2.309052	-3.024583	3.758523	0.065599	24.523683	6.725799	0.000000	0.955089	2.038920	17.538540	9.450480	0.164942	20.148296	-8.240338	0.000000	-0.180901	-0.777345	-0.622475	-0.335951	-1.033869	-0.661380	-0.297202	-1.890038	-0.661380	-0.206752	-1.890038	-0.544665	-0.167985	-1.585163	-0.505761	-0.103367	-1.204108	-0.466856	-1.292157	-8.793487	-3.462018	0.000000	0.000000	18.204325	10.438956	-21.513641	70.377669	-52.346256	71.546982	149.785116	71.122011	8.083792	8.606900	14.110093	-16.101453	121.799717	6.402396	2.850225	-3.616252	-9.375557
2.033333	-2.756220	-0.663426	95.330404	0.202992	0.867605	0.652693	-4.189803	-2.390119	-2.845234	3.664509	0.063958	24.553958	6.596541	0.000000	0.833474	2.106282	17.398161	9.302352	0.162357	20.384869	-8.046703	0.000000	-0.167878	-0.791164	-0.562733	-0.311767	-1.052248	-0.597904	-0.275807	-1.923637	-0.597904	-0.191868	-1.923637	-0.492391	-0.155892	-1.613342	-0.457221	-0.095926	-1.225513	-0.422050	-1.199138	-8.949808	-3.129752	0.000000	0.000000	17.835743	10.049262	-22.266589	69.558817	-51.270111	71.491482	149.698327	71.155574	8.559899	8.887158	14.111105	-16.157601	121.405746	6.785520	2.953144	-4.109851	-9.932504
2.050000	-2.847396	-0.654596	95.273372	0.203412	0.867527	0.652017	-4.273801	-2.454982	-2.516794	3.572335	0.062349	24.541859	6.257404	0.000000	0.731515	2.158456	17.233337	9.127036	0.159297	20.681410	-7.750277	0.000000	-0.153086	-0.803803	-0.507926	-0.284297	-1.069058	-0.539671	-0.251506	-1.954366	-0.539671	-0.174962	-1.954366	-0.444435	-0.142156	-1.639114	-0.412690	-0.087474	-1.245090	-0.380944	-1.093481	-9.092776	-2.824930	0.000000	0.000000	17.499150	9.695909	-23.086302	68.934690	-50.168395	71.481214	149.656285	69.984751	8.708117	9.198218	14.068846	-16.203097	121.243756	7.155104	3.017566	-4.665909	-10.465087
2.066667	-2.924957	-0.642693	95.229905	0.203760	0.867449	0.651528	-4.343572	-2.509278	-2.175200	3.496304	0.061022	24.529669	5.894482	0.000000	0.644937	2.193709	16.992076	8.942307	0.156073	21.029528	-7.274460	0.000000	-0.139254	-0.815813	-0.466680	-0.258608	-1.085032	-0.495847	-0.228780	-1.983569	-0.495847	-0.159153	-1.983569	-0.408345	-0.129311	-1.663607	-0.379177	-0.079570	-1.263695	-0.350010	-0.994676	-9.228645	-2.595533	0.000000	0.000000	17.174088	9.415050	-23.929397	68.459076	-49.015702	71.383784	149.634730	68.402728	8.646038	9.524583	13.985080	-16.260396	121.030848	7.537690	3.242661	-5.277849	-10.930104
